<mxfile host="app.diagrams.net" agent="Mozilla/5.0 (X11; Linux x86_64) AppleWebKit/537.36 (KHTML, like Gecko) Chrome/134.0.0.0 Safari/537.36 OPR/119.0.0.0" version="27.0.5">
  <diagram name="Page-1" id="sblpk0nQZHYe5KcYap-v">
    <mxGraphModel dx="4580" dy="2292" grid="1" gridSize="10" guides="1" tooltips="1" connect="1" arrows="1" fold="1" page="1" pageScale="1" pageWidth="850" pageHeight="1100" math="0" shadow="0">
      <root>
        <mxCell id="0" />
        <mxCell id="1" parent="0" />
        <mxCell id="U3LKnkA5ywqH4N5SOdwo-28" value="" style="rounded=1;whiteSpace=wrap;html=1;dashed=1;fillColor=none;strokeWidth=3;comic=0;" vertex="1" parent="1">
          <mxGeometry x="-1957" y="-370" width="507" height="330" as="geometry" />
        </mxCell>
        <mxCell id="U3LKnkA5ywqH4N5SOdwo-3" value="" style="rounded=1;whiteSpace=wrap;html=1;dashed=1;fillColor=none;strokeWidth=3;comic=0;" vertex="1" parent="1">
          <mxGeometry x="-2090" y="-890" width="860" height="230" as="geometry" />
        </mxCell>
        <mxCell id="U3LKnkA5ywqH4N5SOdwo-5" style="edgeStyle=orthogonalEdgeStyle;rounded=0;orthogonalLoop=1;jettySize=auto;html=1;exitX=0.5;exitY=1;exitDx=0;exitDy=0;entryX=0.5;entryY=0;entryDx=0;entryDy=0;" edge="1" parent="1" source="U3LKnkA5ywqH4N5SOdwo-7" target="U3LKnkA5ywqH4N5SOdwo-9">
          <mxGeometry relative="1" as="geometry" />
        </mxCell>
        <mxCell id="U3LKnkA5ywqH4N5SOdwo-6" value="/sensing/gnss/novatel/oem7/odom&lt;br style=&quot;border-color: var(--border-color);&quot;&gt;[nav_msgs/msg/Odometry]" style="edgeLabel;html=1;align=center;verticalAlign=middle;resizable=0;points=[];" vertex="1" connectable="0" parent="U3LKnkA5ywqH4N5SOdwo-5">
          <mxGeometry x="-0.2141" y="1" relative="1" as="geometry">
            <mxPoint as="offset" />
          </mxGeometry>
        </mxCell>
        <object label="&lt;b&gt;Oem7_gnss_driver&lt;/b&gt;" desc="MGRS座標系への変換" tooltip="gnssのdriverです" id="U3LKnkA5ywqH4N5SOdwo-7">
          <mxCell style="rounded=1;whiteSpace=wrap;html=1;comic=0;strokeColor=#9673a6;fillColor=#e1d5e7;sketch=0;" vertex="1" parent="1">
            <mxGeometry x="-2012" y="-854.25" width="120" height="40" as="geometry" />
          </mxCell>
        </object>
        <mxCell id="U3LKnkA5ywqH4N5SOdwo-8" value="&lt;font style=&quot;font-size: 14px;&quot;&gt;&lt;b style=&quot;&quot;&gt;&amp;lt;SENSING&amp;gt;&lt;/b&gt;&lt;/font&gt;" style="text;html=1;strokeColor=none;fillColor=none;align=center;verticalAlign=middle;whiteSpace=wrap;rounded=0;dashed=1;comic=0;" vertex="1" parent="1">
          <mxGeometry x="-1380" y="-890" width="80" height="30" as="geometry" />
        </mxCell>
        <mxCell id="U3LKnkA5ywqH4N5SOdwo-39" style="edgeStyle=orthogonalEdgeStyle;rounded=0;orthogonalLoop=1;jettySize=auto;html=1;exitX=0.5;exitY=1;exitDx=0;exitDy=0;" edge="1" parent="1" source="U3LKnkA5ywqH4N5SOdwo-9">
          <mxGeometry relative="1" as="geometry">
            <mxPoint x="-1952" y="-620" as="targetPoint" />
          </mxGeometry>
        </mxCell>
        <object label="&lt;b&gt;gnss_poser&lt;/b&gt;" desc="MGRS座標系への変換" tooltip="gnssのdriverです" link="https://github.com/autowarefoundation/autoware.universe/tree/main/sensing/gnss_poser#gnss_poser" linkTarget="_blank" id="U3LKnkA5ywqH4N5SOdwo-9">
          <mxCell style="rounded=1;whiteSpace=wrap;html=1;comic=0;strokeColor=#9673a6;fillColor=#e1d5e7;sketch=0;" vertex="1" parent="1">
            <mxGeometry x="-2012" y="-720" width="120" height="40" as="geometry" />
          </mxCell>
        </object>
        <mxCell id="U3LKnkA5ywqH4N5SOdwo-10" style="edgeStyle=orthogonalEdgeStyle;rounded=0;orthogonalLoop=1;jettySize=auto;html=1;exitX=0.5;exitY=1;exitDx=0;exitDy=0;" edge="1" parent="1" source="U3LKnkA5ywqH4N5SOdwo-12">
          <mxGeometry relative="1" as="geometry">
            <mxPoint x="-1712.9411764705878" y="-711.2500000000005" as="targetPoint" />
          </mxGeometry>
        </mxCell>
        <mxCell id="U3LKnkA5ywqH4N5SOdwo-11" value="/sensing/ultasonic/valeo/freespace" style="edgeLabel;html=1;align=center;verticalAlign=middle;resizable=0;points=[];" vertex="1" connectable="0" parent="U3LKnkA5ywqH4N5SOdwo-10">
          <mxGeometry x="-0.2685" y="1" relative="1" as="geometry">
            <mxPoint as="offset" />
          </mxGeometry>
        </mxCell>
        <object label="&lt;b&gt;Valeo_ultrasonics_driver&lt;/b&gt;" desc="MGRS座標系への変換" tooltip="gnssのdriverです" id="U3LKnkA5ywqH4N5SOdwo-12">
          <mxCell style="rounded=1;whiteSpace=wrap;html=1;comic=0;strokeColor=#9673a6;fillColor=#e1d5e7;sketch=0;" vertex="1" parent="1">
            <mxGeometry x="-1792" y="-854.25" width="160" height="40" as="geometry" />
          </mxCell>
        </object>
        <mxCell id="U3LKnkA5ywqH4N5SOdwo-26" style="edgeStyle=orthogonalEdgeStyle;rounded=0;orthogonalLoop=1;jettySize=auto;html=1;exitX=0.5;exitY=1;exitDx=0;exitDy=0;" edge="1" parent="1" source="U3LKnkA5ywqH4N5SOdwo-14" target="U3LKnkA5ywqH4N5SOdwo-19">
          <mxGeometry relative="1" as="geometry" />
        </mxCell>
        <object label="&lt;b&gt;4 * Fisheye cameras&lt;/b&gt;" desc="MGRS座標系への変換" tooltip="gnssのdriverです" id="U3LKnkA5ywqH4N5SOdwo-14">
          <mxCell style="rounded=1;whiteSpace=wrap;html=1;comic=0;strokeColor=#9673a6;fillColor=#e1d5e7;sketch=0;" vertex="1" parent="1">
            <mxGeometry x="-1577" y="-854.25" width="160" height="40" as="geometry" />
          </mxCell>
        </object>
        <mxCell id="U3LKnkA5ywqH4N5SOdwo-27" style="edgeStyle=orthogonalEdgeStyle;rounded=0;orthogonalLoop=1;jettySize=auto;html=1;exitX=0.5;exitY=1;exitDx=0;exitDy=0;entryX=0.5;entryY=0;entryDx=0;entryDy=0;" edge="1" parent="1" source="U3LKnkA5ywqH4N5SOdwo-16" target="U3LKnkA5ywqH4N5SOdwo-21">
          <mxGeometry relative="1" as="geometry" />
        </mxCell>
        <object label="&lt;b&gt;1 * Front Facing Camera&lt;/b&gt;" desc="MGRS座標系への変換" tooltip="gnssのdriverです" id="U3LKnkA5ywqH4N5SOdwo-16">
          <mxCell style="rounded=1;whiteSpace=wrap;html=1;comic=0;strokeColor=#9673a6;fillColor=#e1d5e7;sketch=0;" vertex="1" parent="1">
            <mxGeometry x="-1398" y="-854.25" width="160" height="40" as="geometry" />
          </mxCell>
        </object>
        <mxCell id="U3LKnkA5ywqH4N5SOdwo-17" value="" style="rounded=1;whiteSpace=wrap;html=1;dashed=1;fillColor=none;strokeWidth=3;comic=0;" vertex="1" parent="1">
          <mxGeometry x="-1710" y="-600" width="490" height="160" as="geometry" />
        </mxCell>
        <mxCell id="U3LKnkA5ywqH4N5SOdwo-18" value="&lt;span style=&quot;font-size: 14px;&quot;&gt;&lt;b&gt;&amp;lt;PERCEPTION&amp;gt;&lt;/b&gt;&lt;/span&gt;" style="text;html=1;strokeColor=none;fillColor=none;align=center;verticalAlign=middle;whiteSpace=wrap;rounded=0;dashed=1;comic=0;" vertex="1" parent="1">
          <mxGeometry x="-1680" y="-590.5" width="80" height="30" as="geometry" />
        </mxCell>
        <mxCell id="U3LKnkA5ywqH4N5SOdwo-36" style="edgeStyle=orthogonalEdgeStyle;rounded=0;orthogonalLoop=1;jettySize=auto;html=1;exitX=0.5;exitY=1;exitDx=0;exitDy=0;" edge="1" parent="1" source="U3LKnkA5ywqH4N5SOdwo-19" target="U3LKnkA5ywqH4N5SOdwo-31">
          <mxGeometry relative="1" as="geometry">
            <Array as="points">
              <mxPoint x="-1561" y="-180" />
              <mxPoint x="-1687" y="-180" />
            </Array>
          </mxGeometry>
        </mxCell>
        <mxCell id="U3LKnkA5ywqH4N5SOdwo-43" value="/planning/amd_parking_planner/parking_lots" style="edgeLabel;html=1;align=center;verticalAlign=middle;resizable=0;points=[];" vertex="1" connectable="0" parent="U3LKnkA5ywqH4N5SOdwo-36">
          <mxGeometry x="-0.6524" y="-1" relative="1" as="geometry">
            <mxPoint x="12" y="-11" as="offset" />
          </mxGeometry>
        </mxCell>
        <object label="&lt;b&gt;amd_parking_space_perception&lt;/b&gt;" desc="MGRS座標系への変換" tooltip="gnssのdriverです" id="U3LKnkA5ywqH4N5SOdwo-19">
          <mxCell style="rounded=1;whiteSpace=wrap;html=1;comic=0;strokeColor=#BD7000;fillColor=#f0a30a;sketch=0;fontColor=#000000;" vertex="1" parent="1">
            <mxGeometry x="-1662" y="-533.13" width="202" height="63.13" as="geometry" />
          </mxCell>
        </object>
        <mxCell id="U3LKnkA5ywqH4N5SOdwo-34" style="edgeStyle=orthogonalEdgeStyle;rounded=0;orthogonalLoop=1;jettySize=auto;html=1;exitX=0.5;exitY=1;exitDx=0;exitDy=0;entryX=0.5;entryY=0;entryDx=0;entryDy=0;" edge="1" parent="1" source="U3LKnkA5ywqH4N5SOdwo-21" target="U3LKnkA5ywqH4N5SOdwo-30">
          <mxGeometry relative="1" as="geometry">
            <Array as="points">
              <mxPoint x="-1320" y="-230" />
              <mxPoint x="-1860" y="-230" />
            </Array>
          </mxGeometry>
        </mxCell>
        <mxCell id="U3LKnkA5ywqH4N5SOdwo-37" style="edgeStyle=orthogonalEdgeStyle;rounded=0;orthogonalLoop=1;jettySize=auto;html=1;exitX=0.5;exitY=1;exitDx=0;exitDy=0;" edge="1" parent="1" source="U3LKnkA5ywqH4N5SOdwo-21" target="U3LKnkA5ywqH4N5SOdwo-33">
          <mxGeometry relative="1" as="geometry">
            <Array as="points">
              <mxPoint x="-1320" y="-230" />
              <mxPoint x="-1526" y="-230" />
            </Array>
          </mxGeometry>
        </mxCell>
        <mxCell id="U3LKnkA5ywqH4N5SOdwo-42" value="/perception/object-recognition/objects" style="edgeLabel;html=1;align=center;verticalAlign=middle;resizable=0;points=[];rotation=90;" vertex="1" connectable="0" parent="U3LKnkA5ywqH4N5SOdwo-37">
          <mxGeometry x="-0.6266" relative="1" as="geometry">
            <mxPoint y="38" as="offset" />
          </mxGeometry>
        </mxCell>
        <object label="&lt;b&gt;SVNet&lt;/b&gt;" desc="MGRS座標系への変換" tooltip="gnssのdriverです" id="U3LKnkA5ywqH4N5SOdwo-21">
          <mxCell style="rounded=1;whiteSpace=wrap;html=1;comic=0;strokeColor=#BD7000;fillColor=#f0a30a;sketch=0;fontColor=#000000;" vertex="1" parent="1">
            <mxGeometry x="-1379.5" y="-533.13" width="119.5" height="63.13" as="geometry" />
          </mxCell>
        </object>
        <mxCell id="U3LKnkA5ywqH4N5SOdwo-29" value="&lt;span style=&quot;font-size: 14px;&quot;&gt;&lt;b&gt;PLANNING&lt;/b&gt;&lt;/span&gt;" style="text;html=1;strokeColor=none;fillColor=none;align=center;verticalAlign=middle;whiteSpace=wrap;rounded=0;dashed=1;comic=0;" vertex="1" parent="1">
          <mxGeometry x="-1547" y="-360" width="80" height="30" as="geometry" />
        </mxCell>
        <object label="&lt;b&gt;Behavior Planner&lt;/b&gt;" desc="MGRS座標系への変換" tooltip="gnssのdriverです" id="U3LKnkA5ywqH4N5SOdwo-30">
          <mxCell style="rounded=1;whiteSpace=wrap;html=1;comic=0;strokeColor=#BD7000;fillColor=#f0a30a;sketch=0;fontColor=#000000;" vertex="1" parent="1">
            <mxGeometry x="-1940" y="-130" width="159" height="63.13" as="geometry" />
          </mxCell>
        </object>
        <object label="&lt;b&gt;FreespacePlanner&lt;/b&gt;" desc="MGRS座標系への変換" tooltip="gnssのdriverです" id="U3LKnkA5ywqH4N5SOdwo-31">
          <mxCell style="rounded=1;whiteSpace=wrap;html=1;comic=0;strokeColor=#BD7000;fillColor=#f0a30a;sketch=0;fontColor=#000000;" vertex="1" parent="1">
            <mxGeometry x="-1755" y="-130" width="133" height="63.13" as="geometry" />
          </mxCell>
        </object>
        <object label="&lt;b&gt;Mission-Planner&lt;/b&gt;" desc="MGRS座標系への変換" tooltip="gnssのdriverです" id="U3LKnkA5ywqH4N5SOdwo-32">
          <mxCell style="rounded=1;whiteSpace=wrap;html=1;comic=0;strokeColor=#BD7000;fillColor=#f0a30a;sketch=0;fontColor=#000000;" vertex="1" parent="1">
            <mxGeometry x="-1759" y="-320" width="159" height="63.13" as="geometry" />
          </mxCell>
        </object>
        <object label="&lt;b&gt;LKA Planner&lt;/b&gt;" desc="MGRS座標系への変換" tooltip="gnssのdriverです" id="U3LKnkA5ywqH4N5SOdwo-33">
          <mxCell style="rounded=1;whiteSpace=wrap;html=1;comic=0;strokeColor=#BD7000;fillColor=#f0a30a;sketch=0;fontColor=#000000;" vertex="1" parent="1">
            <mxGeometry x="-1593" y="-130" width="133" height="63.13" as="geometry" />
          </mxCell>
        </object>
        <mxCell id="U3LKnkA5ywqH4N5SOdwo-44" style="edgeStyle=orthogonalEdgeStyle;rounded=0;orthogonalLoop=1;jettySize=auto;html=1;exitX=0.75;exitY=1;exitDx=0;exitDy=0;" edge="1" parent="1" source="U3LKnkA5ywqH4N5SOdwo-38" target="U3LKnkA5ywqH4N5SOdwo-32">
          <mxGeometry relative="1" as="geometry">
            <Array as="points">
              <mxPoint x="-1855" y="-288" />
            </Array>
          </mxGeometry>
        </mxCell>
        <mxCell id="U3LKnkA5ywqH4N5SOdwo-45" value="/planning/scenario_planning/scenario" style="edgeLabel;html=1;align=center;verticalAlign=middle;resizable=0;points=[];rotation=90;" vertex="1" connectable="0" parent="U3LKnkA5ywqH4N5SOdwo-44">
          <mxGeometry x="-0.126" y="2" relative="1" as="geometry">
            <mxPoint x="13" y="-28" as="offset" />
          </mxGeometry>
        </mxCell>
        <mxCell id="U3LKnkA5ywqH4N5SOdwo-46" style="edgeStyle=orthogonalEdgeStyle;rounded=0;orthogonalLoop=1;jettySize=auto;html=1;exitX=0.5;exitY=1;exitDx=0;exitDy=0;entryX=0;entryY=0.5;entryDx=0;entryDy=0;" edge="1" parent="1" source="U3LKnkA5ywqH4N5SOdwo-38" target="U3LKnkA5ywqH4N5SOdwo-32">
          <mxGeometry relative="1" as="geometry" />
        </mxCell>
        <mxCell id="U3LKnkA5ywqH4N5SOdwo-47" value="/planning/scenario_planning/parking_mode" style="edgeLabel;html=1;align=center;verticalAlign=middle;resizable=0;points=[];rotation=90;" vertex="1" connectable="0" parent="U3LKnkA5ywqH4N5SOdwo-46">
          <mxGeometry x="0.0546" y="-3" relative="1" as="geometry">
            <mxPoint x="-10" y="-86" as="offset" />
          </mxGeometry>
        </mxCell>
        <mxCell id="U3LKnkA5ywqH4N5SOdwo-38" value="&lt;b&gt;RVIZ / HMI&lt;/b&gt;" style="rounded=1;whiteSpace=wrap;html=1;fillColor=#b1ddf0;strokeColor=#10739e;" vertex="1" parent="1">
          <mxGeometry x="-2012" y="-570" width="209.5" height="40" as="geometry" />
        </mxCell>
        <mxCell id="U3LKnkA5ywqH4N5SOdwo-73" value="" style="rounded=1;whiteSpace=wrap;html=1;dashed=1;fillColor=none;strokeWidth=3;comic=0;" vertex="1" parent="1">
          <mxGeometry x="-1270" y="-240" width="330" height="200" as="geometry" />
        </mxCell>
        <UserObject label="&lt;b&gt;lateral_controller&lt;/b&gt;" link="https://github.com/autowarefoundation/autoware.universe/blob/main/control/trajectory_follower_nodes/design/trajectory_follower-design.md#trajectory-follower-nodes" tooltip="経路追従のための目標ステア角とステア角速度を計算します。目標速度と加速度は経路に埋め込まれた値をそのまま出力します。" linkTarget="_blank" id="U3LKnkA5ywqH4N5SOdwo-74">
          <mxCell style="rounded=1;whiteSpace=wrap;html=1;comic=0;fillColor=#ffe6cc;strokeColor=#d79b00;sketch=0;glass=0;shadow=0;" vertex="1" parent="1">
            <mxGeometry x="-1250" y="-187.5" width="120" height="40" as="geometry" />
          </mxCell>
        </UserObject>
        <UserObject label="&lt;b&gt;longitudinal_controller&lt;/b&gt;" link="https://github.com/autowarefoundation/autoware.universe/blob/main/control/trajectory_follower_nodes/design/trajectory_follower-design.md#trajectory-follower-nodes" tooltip="経路の目標速度に沿うための目標加速度を計算します。遅延補正や停止時のブレーキ抜き操作も行います。" linkTarget="_blank" id="U3LKnkA5ywqH4N5SOdwo-75">
          <mxCell style="rounded=1;whiteSpace=wrap;html=1;comic=0;fillColor=#ffe6cc;strokeColor=#d79b00;sketch=0;glass=0;shadow=0;" vertex="1" parent="1">
            <mxGeometry x="-1110" y="-187.5" width="160" height="40" as="geometry" />
          </mxCell>
        </UserObject>
        <UserObject label="&lt;b&gt;vehicle_cmd_gate&lt;/b&gt;" link="https://github.com/autowarefoundation/autoware.universe/tree/main/control/vehicle_cmd_gate#vehicle_cmd_gate" tooltip="指示モードに応じて、複数のコマンドの中から後段に渡すコマンドを選択します。" linkTarget="_blank" id="U3LKnkA5ywqH4N5SOdwo-76">
          <mxCell style="rounded=1;whiteSpace=wrap;html=1;comic=0;fillColor=#ffe6cc;strokeColor=#d79b00;sketch=0;glass=0;shadow=0;" vertex="1" parent="1">
            <mxGeometry x="-1190" y="-99.5" width="170" height="33" as="geometry" />
          </mxCell>
        </UserObject>
        <mxCell id="U3LKnkA5ywqH4N5SOdwo-77" value="&lt;b&gt;&lt;font style=&quot;font-size: 14px;&quot;&gt;&amp;lt;CONTROL&amp;gt;&lt;/font&gt;&lt;/b&gt;" style="text;html=1;strokeColor=none;fillColor=none;align=center;verticalAlign=middle;whiteSpace=wrap;rounded=0;dashed=1;comic=0;" vertex="1" parent="1">
          <mxGeometry x="-1050" y="-219.5" width="80" height="20" as="geometry" />
        </mxCell>
      </root>
    </mxGraphModel>
  </diagram>
</mxfile>
